<svg xmlns="http://www.w3.org/2000/svg" xmlns:xlink="http://www.w3.org/1999/xlink" aria-hidden="true" focusable="false" width="1em" height="1em" style="-ms-transform: rotate(360deg); -webkit-transform: rotate(360deg); transform: rotate(360deg);" preserveAspectRatio="xMidYMid meet" viewBox="0 0 1024 1024"><path d="M993 135L672 2L353 128L31 2q-4-1-8-1t-7.5 1T9 5t-5 5t-3 7t-1 8v830q0 14 9 25.5T31 896l322 127l319-129l321 126q4 1 8 1q10 0 16.5-7t6.5-18V176q0-9-4-17.5t-11-15t-16-8.5zm-609 46L640 81v761L384 944V181zM64 87l256 94v762L64 839V87zm896 851l-256-96V82l256 110v746z" fill="#fff"/></svg>